%TF.GenerationSoftware,KiCad,Pcbnew,6.0.9+dfsg-1*%
%TF.CreationDate,2022-11-12T19:52:31+00:00*%
%TF.ProjectId,antenna,616e7465-6e6e-4612-9e6b-696361645f70,rev?*%
%TF.SameCoordinates,Original*%
%TF.FileFunction,Legend,Top*%
%TF.FilePolarity,Positive*%
%FSLAX46Y46*%
G04 Gerber Fmt 4.6, Leading zero omitted, Abs format (unit mm)*
G04 Created by KiCad (PCBNEW 6.0.9+dfsg-1) date 2022-11-12 19:52:31*
%MOMM*%
%LPD*%
G01*
G04 APERTURE LIST*
G04 Aperture macros list*
%AMRoundRect*
0 Rectangle with rounded corners*
0 $1 Rounding radius*
0 $2 $3 $4 $5 $6 $7 $8 $9 X,Y pos of 4 corners*
0 Add a 4 corners polygon primitive as box body*
4,1,4,$2,$3,$4,$5,$6,$7,$8,$9,$2,$3,0*
0 Add four circle primitives for the rounded corners*
1,1,$1+$1,$2,$3*
1,1,$1+$1,$4,$5*
1,1,$1+$1,$6,$7*
1,1,$1+$1,$8,$9*
0 Add four rect primitives between the rounded corners*
20,1,$1+$1,$2,$3,$4,$5,0*
20,1,$1+$1,$4,$5,$6,$7,0*
20,1,$1+$1,$6,$7,$8,$9,0*
20,1,$1+$1,$8,$9,$2,$3,0*%
G04 Aperture macros list end*
%ADD10C,0.150000*%
%ADD11C,0.010000*%
%ADD12C,0.120000*%
%ADD13RoundRect,0.237500X-0.300000X-0.237500X0.300000X-0.237500X0.300000X0.237500X-0.300000X0.237500X0*%
%ADD14RoundRect,0.237500X0.237500X-0.287500X0.237500X0.287500X-0.237500X0.287500X-0.237500X-0.287500X0*%
%ADD15C,2.740000*%
%ADD16C,2.240000*%
%ADD17RoundRect,0.237500X-0.380070X0.044194X0.044194X-0.380070X0.380070X-0.044194X-0.044194X0.380070X0*%
%ADD18C,7.400000*%
%ADD19C,4.100000*%
G04 APERTURE END LIST*
D10*
X134824566Y-111357142D02*
X134776947Y-111404761D01*
X134634090Y-111452380D01*
X134538852Y-111452380D01*
X134395994Y-111404761D01*
X134300756Y-111309523D01*
X134253137Y-111214285D01*
X134205518Y-111023809D01*
X134205518Y-110880952D01*
X134253137Y-110690476D01*
X134300756Y-110595238D01*
X134395994Y-110500000D01*
X134538852Y-110452380D01*
X134634090Y-110452380D01*
X134776947Y-110500000D01*
X134824566Y-110547619D01*
X135205518Y-110547619D02*
X135253137Y-110500000D01*
X135348375Y-110452380D01*
X135586471Y-110452380D01*
X135681709Y-110500000D01*
X135729328Y-110547619D01*
X135776947Y-110642857D01*
X135776947Y-110738095D01*
X135729328Y-110880952D01*
X135157899Y-111452380D01*
X135776947Y-111452380D01*
X137176190Y-110052380D02*
X137176190Y-109052380D01*
X137414285Y-109052380D01*
X137557142Y-109100000D01*
X137652380Y-109195238D01*
X137700000Y-109290476D01*
X137747619Y-109480952D01*
X137747619Y-109623809D01*
X137700000Y-109814285D01*
X137652380Y-109909523D01*
X137557142Y-110004761D01*
X137414285Y-110052380D01*
X137176190Y-110052380D01*
X138176190Y-110052380D02*
X138176190Y-109052380D01*
X138747619Y-110052380D01*
X138747619Y-109052380D01*
X139223809Y-110052380D02*
X139223809Y-109052380D01*
X135433333Y-107852380D02*
X134957142Y-107852380D01*
X134957142Y-106852380D01*
X135719047Y-106947619D02*
X135766666Y-106900000D01*
X135861904Y-106852380D01*
X136100000Y-106852380D01*
X136195238Y-106900000D01*
X136242857Y-106947619D01*
X136290476Y-107042857D01*
X136290476Y-107138095D01*
X136242857Y-107280952D01*
X135671428Y-107852380D01*
X136290476Y-107852380D01*
X127666666Y-110102380D02*
X127666666Y-110816666D01*
X127619047Y-110959523D01*
X127523809Y-111054761D01*
X127380952Y-111102380D01*
X127285714Y-111102380D01*
X128666666Y-111102380D02*
X128095238Y-111102380D01*
X128380952Y-111102380D02*
X128380952Y-110102380D01*
X128285714Y-110245238D01*
X128190476Y-110340476D01*
X128095238Y-110388095D01*
X137934687Y-107170389D02*
X137934687Y-107237732D01*
X137867343Y-107372419D01*
X137800000Y-107439763D01*
X137665312Y-107507106D01*
X137530625Y-107507106D01*
X137429610Y-107473435D01*
X137261251Y-107372419D01*
X137160236Y-107271404D01*
X137059221Y-107103045D01*
X137025549Y-107002030D01*
X137025549Y-106867343D01*
X137092893Y-106732656D01*
X137160236Y-106665312D01*
X137294923Y-106597969D01*
X137362267Y-106597969D01*
X138136717Y-106160236D02*
X138608122Y-106631641D01*
X137698984Y-106059221D02*
X138035702Y-106732656D01*
X138473435Y-106294923D01*
X134843824Y-103204061D02*
X134136717Y-103911167D01*
X133968358Y-103742809D01*
X133901015Y-103608122D01*
X133901015Y-103473435D01*
X133934687Y-103372419D01*
X134035702Y-103204061D01*
X134136717Y-103103045D01*
X134305076Y-103002030D01*
X134406091Y-102968358D01*
X134540778Y-102968358D01*
X134675465Y-103035702D01*
X134843824Y-103204061D01*
X134136717Y-102496954D02*
X133429610Y-103204061D01*
X133732656Y-102092893D01*
X133025549Y-102800000D01*
X133395938Y-101756175D02*
X132688832Y-102463282D01*
X141666666Y-106452380D02*
X141666666Y-107166666D01*
X141619047Y-107309523D01*
X141523809Y-107404761D01*
X141380952Y-107452380D01*
X141285714Y-107452380D01*
X142095238Y-106547619D02*
X142142857Y-106500000D01*
X142238095Y-106452380D01*
X142476190Y-106452380D01*
X142571428Y-106500000D01*
X142619047Y-106547619D01*
X142666666Y-106642857D01*
X142666666Y-106738095D01*
X142619047Y-106880952D01*
X142047619Y-107452380D01*
X142666666Y-107452380D01*
G36*
X132800697Y-96793970D02*
G01*
X132820033Y-96797400D01*
X132850352Y-96803030D01*
X132890319Y-96810605D01*
X132938599Y-96819871D01*
X132993859Y-96830572D01*
X133054762Y-96842455D01*
X133119976Y-96855263D01*
X133121094Y-96855484D01*
X133201677Y-96871474D01*
X133269475Y-96885182D01*
X133325396Y-96896815D01*
X133370348Y-96906580D01*
X133405239Y-96914683D01*
X133430978Y-96921330D01*
X133448474Y-96926729D01*
X133458633Y-96931085D01*
X133461102Y-96932804D01*
X133473574Y-96946227D01*
X133492726Y-96969656D01*
X133517447Y-97001566D01*
X133546624Y-97040433D01*
X133579144Y-97084732D01*
X133613896Y-97132937D01*
X133649767Y-97183524D01*
X133685644Y-97234969D01*
X133720415Y-97285745D01*
X133742273Y-97318234D01*
X133845542Y-97477334D01*
X133946719Y-97641776D01*
X134044654Y-97809429D01*
X134138199Y-97978163D01*
X134226202Y-98145847D01*
X134307513Y-98310352D01*
X134380984Y-98469546D01*
X134444782Y-98619617D01*
X134460866Y-98660630D01*
X134478350Y-98707438D01*
X134496411Y-98757618D01*
X134514230Y-98808749D01*
X134530987Y-98858409D01*
X134545860Y-98904176D01*
X134558030Y-98943629D01*
X134566676Y-98974346D01*
X134570389Y-98990372D01*
X134574647Y-99007015D01*
X134579120Y-99015845D01*
X134580077Y-99016274D01*
X134586754Y-99011234D01*
X134601072Y-98997142D01*
X134621646Y-98975541D01*
X134647088Y-98947973D01*
X134676016Y-98915981D01*
X134707042Y-98881108D01*
X134738782Y-98844897D01*
X134769851Y-98808889D01*
X134798864Y-98774628D01*
X134820049Y-98749040D01*
X134884931Y-98667140D01*
X134944680Y-98586123D01*
X135001417Y-98502812D01*
X135057268Y-98414035D01*
X135114354Y-98316615D01*
X135140812Y-98269471D01*
X135160513Y-98234757D01*
X135178166Y-98205166D01*
X135192620Y-98182505D01*
X135202728Y-98168579D01*
X135207259Y-98165088D01*
X135212526Y-98173146D01*
X135222843Y-98190848D01*
X135236705Y-98215556D01*
X135252178Y-98243836D01*
X135329089Y-98379716D01*
X135407247Y-98504810D01*
X135488710Y-98622225D01*
X135575537Y-98735070D01*
X135586337Y-98748357D01*
X135612781Y-98780211D01*
X135642384Y-98815040D01*
X135673767Y-98851306D01*
X135705545Y-98887468D01*
X135736339Y-98921989D01*
X135764766Y-98953329D01*
X135789445Y-98979948D01*
X135808992Y-99000309D01*
X135822028Y-99012872D01*
X135826883Y-99016274D01*
X135831129Y-99010181D01*
X135835610Y-98995069D01*
X135836571Y-98990372D01*
X135841986Y-98967926D01*
X135851549Y-98934900D01*
X135864440Y-98893717D01*
X135879838Y-98846799D01*
X135896924Y-98796567D01*
X135914876Y-98745443D01*
X135932873Y-98695849D01*
X135950097Y-98650206D01*
X135962178Y-98619617D01*
X136025492Y-98470701D01*
X136097659Y-98314261D01*
X136177518Y-98152442D01*
X136263912Y-97987390D01*
X136355683Y-97821251D01*
X136451672Y-97656171D01*
X136550722Y-97494296D01*
X136651675Y-97337772D01*
X136663995Y-97319251D01*
X136697378Y-97269822D01*
X136732611Y-97218694D01*
X136768585Y-97167389D01*
X136804188Y-97117430D01*
X136838312Y-97070339D01*
X136869845Y-97027639D01*
X136897678Y-96990854D01*
X136920700Y-96961504D01*
X136937802Y-96941114D01*
X136945553Y-96933079D01*
X136952906Y-96929111D01*
X136967791Y-96924066D01*
X136991057Y-96917752D01*
X137023552Y-96909977D01*
X137066124Y-96900547D01*
X137119624Y-96889271D01*
X137184898Y-96875955D01*
X137262795Y-96860407D01*
X137285561Y-96855908D01*
X137350866Y-96843064D01*
X137411884Y-96831137D01*
X137467281Y-96820382D01*
X137515724Y-96811055D01*
X137555878Y-96803412D01*
X137586409Y-96797708D01*
X137605985Y-96794198D01*
X137613271Y-96793137D01*
X137613282Y-96793143D01*
X137611871Y-96799843D01*
X137607357Y-96818646D01*
X137600092Y-96848171D01*
X137590424Y-96887039D01*
X137578704Y-96933869D01*
X137565282Y-96987282D01*
X137550509Y-97045897D01*
X137534733Y-97108334D01*
X137518307Y-97173214D01*
X137501579Y-97239155D01*
X137484899Y-97304779D01*
X137468619Y-97368704D01*
X137453087Y-97429551D01*
X137438655Y-97485940D01*
X137425672Y-97536491D01*
X137414488Y-97579823D01*
X137405454Y-97614557D01*
X137398920Y-97639312D01*
X137395235Y-97652708D01*
X137395076Y-97653241D01*
X137396765Y-97658541D01*
X137405068Y-97666598D01*
X137421059Y-97678116D01*
X137445815Y-97693804D01*
X137480413Y-97714366D01*
X137525929Y-97740511D01*
X137541465Y-97749317D01*
X137582695Y-97772840D01*
X137619584Y-97794285D01*
X137650494Y-97812666D01*
X137673786Y-97826997D01*
X137687821Y-97836294D01*
X137691288Y-97839400D01*
X137685575Y-97843811D01*
X137668909Y-97855347D01*
X137642003Y-97873538D01*
X137605567Y-97897913D01*
X137560312Y-97928004D01*
X137506950Y-97963340D01*
X137446192Y-98003452D01*
X137378749Y-98047870D01*
X137305332Y-98096125D01*
X137226653Y-98147746D01*
X137143423Y-98202264D01*
X137056352Y-98259210D01*
X136988519Y-98303515D01*
X136899009Y-98362002D01*
X136812800Y-98418441D01*
X136730605Y-98472360D01*
X136653136Y-98523288D01*
X136581103Y-98570752D01*
X136515218Y-98614282D01*
X136456194Y-98653407D01*
X136404741Y-98687654D01*
X136361572Y-98716551D01*
X136327398Y-98739629D01*
X136302930Y-98756414D01*
X136288881Y-98766436D01*
X136285609Y-98769233D01*
X136287617Y-98777185D01*
X136293405Y-98796948D01*
X136302527Y-98827073D01*
X136314537Y-98866109D01*
X136328987Y-98912609D01*
X136345430Y-98965123D01*
X136363421Y-99022200D01*
X136369899Y-99042667D01*
X136388187Y-99100842D01*
X136404891Y-99154858D01*
X136419588Y-99203284D01*
X136431858Y-99244691D01*
X136441279Y-99277649D01*
X136447428Y-99300726D01*
X136449885Y-99312494D01*
X136449790Y-99313681D01*
X136442366Y-99313537D01*
X136422111Y-99311817D01*
X136390012Y-99308631D01*
X136347052Y-99304090D01*
X136294217Y-99298305D01*
X136232491Y-99291385D01*
X136162861Y-99283441D01*
X136086309Y-99274584D01*
X136003823Y-99264924D01*
X135916386Y-99254571D01*
X135824983Y-99243637D01*
X135824365Y-99243562D01*
X135203480Y-99168904D01*
X134595318Y-99242206D01*
X134504521Y-99253127D01*
X134417459Y-99263557D01*
X134335154Y-99273374D01*
X134258628Y-99282460D01*
X134188902Y-99290694D01*
X134126997Y-99297956D01*
X134073935Y-99304126D01*
X134030738Y-99309085D01*
X133998427Y-99312712D01*
X133978024Y-99314888D01*
X133970756Y-99315507D01*
X133958157Y-99313419D01*
X133954356Y-99309732D01*
X133956394Y-99302038D01*
X133962208Y-99282534D01*
X133971348Y-99252669D01*
X133983364Y-99213894D01*
X133997806Y-99167658D01*
X134014223Y-99115412D01*
X134032167Y-99058605D01*
X134037863Y-99040631D01*
X134056193Y-98982644D01*
X134073129Y-98928704D01*
X134088221Y-98880273D01*
X134101018Y-98838814D01*
X134111070Y-98805788D01*
X134117926Y-98782658D01*
X134121135Y-98770887D01*
X134121320Y-98769790D01*
X134115599Y-98765101D01*
X134098923Y-98753295D01*
X134072004Y-98734844D01*
X134035553Y-98710220D01*
X133990283Y-98679894D01*
X133936903Y-98644340D01*
X133876127Y-98604028D01*
X133808665Y-98559433D01*
X133735229Y-98511025D01*
X133656530Y-98459276D01*
X133573281Y-98404660D01*
X133486192Y-98347648D01*
X133418471Y-98303395D01*
X133328975Y-98244918D01*
X133242781Y-98188516D01*
X133160602Y-98134658D01*
X133083148Y-98083814D01*
X133011130Y-98036454D01*
X132945259Y-97993047D01*
X132886246Y-97954064D01*
X132834803Y-97919972D01*
X132791641Y-97891244D01*
X132757471Y-97868346D01*
X132733003Y-97851751D01*
X132718950Y-97841926D01*
X132715672Y-97839280D01*
X132721476Y-97834556D01*
X132737797Y-97824037D01*
X132762995Y-97808707D01*
X132795432Y-97789550D01*
X132833468Y-97767549D01*
X132865494Y-97749317D01*
X132914408Y-97721406D01*
X132952089Y-97699284D01*
X132979613Y-97682243D01*
X132998057Y-97669578D01*
X133008497Y-97660582D01*
X133012010Y-97654548D01*
X133011884Y-97653241D01*
X133008416Y-97640724D01*
X133002074Y-97616746D01*
X132993207Y-97582687D01*
X132982165Y-97539928D01*
X132969299Y-97489849D01*
X132954959Y-97433829D01*
X132939495Y-97373250D01*
X132923256Y-97309492D01*
X132906593Y-97243934D01*
X132889857Y-97177957D01*
X132873396Y-97112941D01*
X132857562Y-97050267D01*
X132842705Y-96991314D01*
X132829173Y-96937463D01*
X132817319Y-96890094D01*
X132807491Y-96850588D01*
X132800040Y-96820324D01*
X132795315Y-96800682D01*
X132793668Y-96793044D01*
X132793677Y-96792994D01*
X132800697Y-96793970D01*
G37*
D11*
X132800697Y-96793970D02*
X132820033Y-96797400D01*
X132850352Y-96803030D01*
X132890319Y-96810605D01*
X132938599Y-96819871D01*
X132993859Y-96830572D01*
X133054762Y-96842455D01*
X133119976Y-96855263D01*
X133121094Y-96855484D01*
X133201677Y-96871474D01*
X133269475Y-96885182D01*
X133325396Y-96896815D01*
X133370348Y-96906580D01*
X133405239Y-96914683D01*
X133430978Y-96921330D01*
X133448474Y-96926729D01*
X133458633Y-96931085D01*
X133461102Y-96932804D01*
X133473574Y-96946227D01*
X133492726Y-96969656D01*
X133517447Y-97001566D01*
X133546624Y-97040433D01*
X133579144Y-97084732D01*
X133613896Y-97132937D01*
X133649767Y-97183524D01*
X133685644Y-97234969D01*
X133720415Y-97285745D01*
X133742273Y-97318234D01*
X133845542Y-97477334D01*
X133946719Y-97641776D01*
X134044654Y-97809429D01*
X134138199Y-97978163D01*
X134226202Y-98145847D01*
X134307513Y-98310352D01*
X134380984Y-98469546D01*
X134444782Y-98619617D01*
X134460866Y-98660630D01*
X134478350Y-98707438D01*
X134496411Y-98757618D01*
X134514230Y-98808749D01*
X134530987Y-98858409D01*
X134545860Y-98904176D01*
X134558030Y-98943629D01*
X134566676Y-98974346D01*
X134570389Y-98990372D01*
X134574647Y-99007015D01*
X134579120Y-99015845D01*
X134580077Y-99016274D01*
X134586754Y-99011234D01*
X134601072Y-98997142D01*
X134621646Y-98975541D01*
X134647088Y-98947973D01*
X134676016Y-98915981D01*
X134707042Y-98881108D01*
X134738782Y-98844897D01*
X134769851Y-98808889D01*
X134798864Y-98774628D01*
X134820049Y-98749040D01*
X134884931Y-98667140D01*
X134944680Y-98586123D01*
X135001417Y-98502812D01*
X135057268Y-98414035D01*
X135114354Y-98316615D01*
X135140812Y-98269471D01*
X135160513Y-98234757D01*
X135178166Y-98205166D01*
X135192620Y-98182505D01*
X135202728Y-98168579D01*
X135207259Y-98165088D01*
X135212526Y-98173146D01*
X135222843Y-98190848D01*
X135236705Y-98215556D01*
X135252178Y-98243836D01*
X135329089Y-98379716D01*
X135407247Y-98504810D01*
X135488710Y-98622225D01*
X135575537Y-98735070D01*
X135586337Y-98748357D01*
X135612781Y-98780211D01*
X135642384Y-98815040D01*
X135673767Y-98851306D01*
X135705545Y-98887468D01*
X135736339Y-98921989D01*
X135764766Y-98953329D01*
X135789445Y-98979948D01*
X135808992Y-99000309D01*
X135822028Y-99012872D01*
X135826883Y-99016274D01*
X135831129Y-99010181D01*
X135835610Y-98995069D01*
X135836571Y-98990372D01*
X135841986Y-98967926D01*
X135851549Y-98934900D01*
X135864440Y-98893717D01*
X135879838Y-98846799D01*
X135896924Y-98796567D01*
X135914876Y-98745443D01*
X135932873Y-98695849D01*
X135950097Y-98650206D01*
X135962178Y-98619617D01*
X136025492Y-98470701D01*
X136097659Y-98314261D01*
X136177518Y-98152442D01*
X136263912Y-97987390D01*
X136355683Y-97821251D01*
X136451672Y-97656171D01*
X136550722Y-97494296D01*
X136651675Y-97337772D01*
X136663995Y-97319251D01*
X136697378Y-97269822D01*
X136732611Y-97218694D01*
X136768585Y-97167389D01*
X136804188Y-97117430D01*
X136838312Y-97070339D01*
X136869845Y-97027639D01*
X136897678Y-96990854D01*
X136920700Y-96961504D01*
X136937802Y-96941114D01*
X136945553Y-96933079D01*
X136952906Y-96929111D01*
X136967791Y-96924066D01*
X136991057Y-96917752D01*
X137023552Y-96909977D01*
X137066124Y-96900547D01*
X137119624Y-96889271D01*
X137184898Y-96875955D01*
X137262795Y-96860407D01*
X137285561Y-96855908D01*
X137350866Y-96843064D01*
X137411884Y-96831137D01*
X137467281Y-96820382D01*
X137515724Y-96811055D01*
X137555878Y-96803412D01*
X137586409Y-96797708D01*
X137605985Y-96794198D01*
X137613271Y-96793137D01*
X137613282Y-96793143D01*
X137611871Y-96799843D01*
X137607357Y-96818646D01*
X137600092Y-96848171D01*
X137590424Y-96887039D01*
X137578704Y-96933869D01*
X137565282Y-96987282D01*
X137550509Y-97045897D01*
X137534733Y-97108334D01*
X137518307Y-97173214D01*
X137501579Y-97239155D01*
X137484899Y-97304779D01*
X137468619Y-97368704D01*
X137453087Y-97429551D01*
X137438655Y-97485940D01*
X137425672Y-97536491D01*
X137414488Y-97579823D01*
X137405454Y-97614557D01*
X137398920Y-97639312D01*
X137395235Y-97652708D01*
X137395076Y-97653241D01*
X137396765Y-97658541D01*
X137405068Y-97666598D01*
X137421059Y-97678116D01*
X137445815Y-97693804D01*
X137480413Y-97714366D01*
X137525929Y-97740511D01*
X137541465Y-97749317D01*
X137582695Y-97772840D01*
X137619584Y-97794285D01*
X137650494Y-97812666D01*
X137673786Y-97826997D01*
X137687821Y-97836294D01*
X137691288Y-97839400D01*
X137685575Y-97843811D01*
X137668909Y-97855347D01*
X137642003Y-97873538D01*
X137605567Y-97897913D01*
X137560312Y-97928004D01*
X137506950Y-97963340D01*
X137446192Y-98003452D01*
X137378749Y-98047870D01*
X137305332Y-98096125D01*
X137226653Y-98147746D01*
X137143423Y-98202264D01*
X137056352Y-98259210D01*
X136988519Y-98303515D01*
X136899009Y-98362002D01*
X136812800Y-98418441D01*
X136730605Y-98472360D01*
X136653136Y-98523288D01*
X136581103Y-98570752D01*
X136515218Y-98614282D01*
X136456194Y-98653407D01*
X136404741Y-98687654D01*
X136361572Y-98716551D01*
X136327398Y-98739629D01*
X136302930Y-98756414D01*
X136288881Y-98766436D01*
X136285609Y-98769233D01*
X136287617Y-98777185D01*
X136293405Y-98796948D01*
X136302527Y-98827073D01*
X136314537Y-98866109D01*
X136328987Y-98912609D01*
X136345430Y-98965123D01*
X136363421Y-99022200D01*
X136369899Y-99042667D01*
X136388187Y-99100842D01*
X136404891Y-99154858D01*
X136419588Y-99203284D01*
X136431858Y-99244691D01*
X136441279Y-99277649D01*
X136447428Y-99300726D01*
X136449885Y-99312494D01*
X136449790Y-99313681D01*
X136442366Y-99313537D01*
X136422111Y-99311817D01*
X136390012Y-99308631D01*
X136347052Y-99304090D01*
X136294217Y-99298305D01*
X136232491Y-99291385D01*
X136162861Y-99283441D01*
X136086309Y-99274584D01*
X136003823Y-99264924D01*
X135916386Y-99254571D01*
X135824983Y-99243637D01*
X135824365Y-99243562D01*
X135203480Y-99168904D01*
X134595318Y-99242206D01*
X134504521Y-99253127D01*
X134417459Y-99263557D01*
X134335154Y-99273374D01*
X134258628Y-99282460D01*
X134188902Y-99290694D01*
X134126997Y-99297956D01*
X134073935Y-99304126D01*
X134030738Y-99309085D01*
X133998427Y-99312712D01*
X133978024Y-99314888D01*
X133970756Y-99315507D01*
X133958157Y-99313419D01*
X133954356Y-99309732D01*
X133956394Y-99302038D01*
X133962208Y-99282534D01*
X133971348Y-99252669D01*
X133983364Y-99213894D01*
X133997806Y-99167658D01*
X134014223Y-99115412D01*
X134032167Y-99058605D01*
X134037863Y-99040631D01*
X134056193Y-98982644D01*
X134073129Y-98928704D01*
X134088221Y-98880273D01*
X134101018Y-98838814D01*
X134111070Y-98805788D01*
X134117926Y-98782658D01*
X134121135Y-98770887D01*
X134121320Y-98769790D01*
X134115599Y-98765101D01*
X134098923Y-98753295D01*
X134072004Y-98734844D01*
X134035553Y-98710220D01*
X133990283Y-98679894D01*
X133936903Y-98644340D01*
X133876127Y-98604028D01*
X133808665Y-98559433D01*
X133735229Y-98511025D01*
X133656530Y-98459276D01*
X133573281Y-98404660D01*
X133486192Y-98347648D01*
X133418471Y-98303395D01*
X133328975Y-98244918D01*
X133242781Y-98188516D01*
X133160602Y-98134658D01*
X133083148Y-98083814D01*
X133011130Y-98036454D01*
X132945259Y-97993047D01*
X132886246Y-97954064D01*
X132834803Y-97919972D01*
X132791641Y-97891244D01*
X132757471Y-97868346D01*
X132733003Y-97851751D01*
X132718950Y-97841926D01*
X132715672Y-97839280D01*
X132721476Y-97834556D01*
X132737797Y-97824037D01*
X132762995Y-97808707D01*
X132795432Y-97789550D01*
X132833468Y-97767549D01*
X132865494Y-97749317D01*
X132914408Y-97721406D01*
X132952089Y-97699284D01*
X132979613Y-97682243D01*
X132998057Y-97669578D01*
X133008497Y-97660582D01*
X133012010Y-97654548D01*
X133011884Y-97653241D01*
X133008416Y-97640724D01*
X133002074Y-97616746D01*
X132993207Y-97582687D01*
X132982165Y-97539928D01*
X132969299Y-97489849D01*
X132954959Y-97433829D01*
X132939495Y-97373250D01*
X132923256Y-97309492D01*
X132906593Y-97243934D01*
X132889857Y-97177957D01*
X132873396Y-97112941D01*
X132857562Y-97050267D01*
X132842705Y-96991314D01*
X132829173Y-96937463D01*
X132817319Y-96890094D01*
X132807491Y-96850588D01*
X132800040Y-96820324D01*
X132795315Y-96800682D01*
X132793668Y-96793044D01*
X132793677Y-96792994D01*
X132800697Y-96793970D01*
G36*
X134284353Y-96428113D02*
G01*
X134275482Y-96335131D01*
X134267088Y-96246110D01*
X134259257Y-96162023D01*
X134252076Y-96083843D01*
X134245631Y-96012543D01*
X134240008Y-95949098D01*
X134235293Y-95894479D01*
X134231572Y-95849661D01*
X134228931Y-95815617D01*
X134227457Y-95793320D01*
X134227235Y-95783742D01*
X134227323Y-95783454D01*
X134234486Y-95785128D01*
X134252938Y-95791832D01*
X134281236Y-95802974D01*
X134317938Y-95817966D01*
X134361599Y-95836218D01*
X134410775Y-95857139D01*
X134464024Y-95880139D01*
X134465125Y-95880618D01*
X134518386Y-95903770D01*
X134567506Y-95925069D01*
X134611053Y-95943899D01*
X134647596Y-95959642D01*
X134675705Y-95971683D01*
X134693949Y-95979405D01*
X134700895Y-95982191D01*
X134700909Y-95982192D01*
X134704585Y-95976261D01*
X134714460Y-95959103D01*
X134730002Y-95931672D01*
X134750677Y-95894922D01*
X134775952Y-95849806D01*
X134805293Y-95797279D01*
X134838167Y-95738293D01*
X134874040Y-95673804D01*
X134912378Y-95604763D01*
X134949911Y-95537066D01*
X134990149Y-95464606D01*
X135028532Y-95395811D01*
X135064516Y-95331636D01*
X135097558Y-95273036D01*
X135127113Y-95220967D01*
X135152638Y-95176382D01*
X135173587Y-95140238D01*
X135189418Y-95113489D01*
X135199585Y-95097091D01*
X135203480Y-95091967D01*
X135207914Y-95097905D01*
X135218516Y-95115069D01*
X135234733Y-95142494D01*
X135256017Y-95179215D01*
X135281817Y-95224269D01*
X135311583Y-95276690D01*
X135344765Y-95335515D01*
X135380813Y-95399778D01*
X135419176Y-95468517D01*
X135452447Y-95528394D01*
X135492369Y-95600367D01*
X135530398Y-95668895D01*
X135565983Y-95732988D01*
X135598574Y-95791656D01*
X135627619Y-95843908D01*
X135652569Y-95888755D01*
X135672873Y-95925205D01*
X135687980Y-95952270D01*
X135697339Y-95968958D01*
X135700334Y-95974197D01*
X135704557Y-95975601D01*
X135714410Y-95973950D01*
X135730913Y-95968851D01*
X135755090Y-95959909D01*
X135787962Y-95946728D01*
X135830551Y-95928916D01*
X135883880Y-95906076D01*
X135940783Y-95881385D01*
X135994229Y-95858260D01*
X136043633Y-95837198D01*
X136087555Y-95818790D01*
X136124557Y-95803625D01*
X136153199Y-95792293D01*
X136172043Y-95785382D01*
X136179651Y-95783482D01*
X136179700Y-95783517D01*
X136179680Y-95790923D01*
X136178395Y-95811208D01*
X136175930Y-95843399D01*
X136172371Y-95886522D01*
X136167805Y-95939605D01*
X136162318Y-96001673D01*
X136155995Y-96071755D01*
X136148924Y-96148876D01*
X136141190Y-96232064D01*
X136132880Y-96320345D01*
X136124080Y-96412747D01*
X136122606Y-96428113D01*
X136113721Y-96521058D01*
X136105282Y-96610014D01*
X136097379Y-96694010D01*
X136090099Y-96772077D01*
X136083532Y-96843244D01*
X136077764Y-96906541D01*
X136072885Y-96960998D01*
X136068983Y-97005643D01*
X136066146Y-97039507D01*
X136064462Y-97061619D01*
X136064020Y-97071010D01*
X136064073Y-97071269D01*
X136069652Y-97067311D01*
X136084688Y-97054887D01*
X136108257Y-97034803D01*
X136139434Y-97007863D01*
X136177296Y-96974873D01*
X136220918Y-96936636D01*
X136269376Y-96893959D01*
X136321745Y-96847646D01*
X136368061Y-96806540D01*
X136423108Y-96757694D01*
X136475100Y-96711723D01*
X136523100Y-96669445D01*
X136566174Y-96631676D01*
X136603385Y-96599233D01*
X136633797Y-96572931D01*
X136656475Y-96553587D01*
X136670482Y-96542018D01*
X136674853Y-96538905D01*
X136676978Y-96540463D01*
X136680242Y-96545908D01*
X136685099Y-96556398D01*
X136692001Y-96573089D01*
X136701401Y-96597138D01*
X136713751Y-96629702D01*
X136729503Y-96671939D01*
X136749111Y-96725004D01*
X136771753Y-96786583D01*
X136792427Y-96842892D01*
X136733126Y-96911302D01*
X136656616Y-97001806D01*
X136576367Y-97100895D01*
X136493504Y-97206960D01*
X136409153Y-97318391D01*
X136324440Y-97433578D01*
X136240490Y-97550911D01*
X136158429Y-97668779D01*
X136079382Y-97785573D01*
X136004476Y-97899683D01*
X135934836Y-98009499D01*
X135871587Y-98113410D01*
X135815856Y-98209807D01*
X135782192Y-98271437D01*
X135744401Y-98342623D01*
X135721445Y-98309258D01*
X135677684Y-98240895D01*
X135632339Y-98161222D01*
X135586500Y-98072587D01*
X135541257Y-97977337D01*
X135497702Y-97877821D01*
X135456925Y-97776387D01*
X135420016Y-97675383D01*
X135401808Y-97621014D01*
X135368975Y-97513980D01*
X135336111Y-97396397D01*
X135304045Y-97271606D01*
X135273605Y-97142948D01*
X135245619Y-97013766D01*
X135223846Y-96903197D01*
X135204129Y-96797764D01*
X135168304Y-96976266D01*
X135128713Y-97162152D01*
X135087007Y-97335290D01*
X135042810Y-97496738D01*
X134995747Y-97647556D01*
X134945443Y-97788803D01*
X134891522Y-97921539D01*
X134833609Y-98046822D01*
X134771330Y-98165714D01*
X134710269Y-98269689D01*
X134693644Y-98296104D01*
X134679432Y-98317856D01*
X134669357Y-98332356D01*
X134665446Y-98336989D01*
X134660281Y-98332639D01*
X134650666Y-98318340D01*
X134638237Y-98296659D01*
X134630963Y-98282849D01*
X134590515Y-98207484D01*
X134541891Y-98123061D01*
X134486079Y-98030995D01*
X134424066Y-97932702D01*
X134356841Y-97829597D01*
X134285391Y-97723097D01*
X134210704Y-97614616D01*
X134133769Y-97505572D01*
X134055574Y-97397379D01*
X133977106Y-97291454D01*
X133899353Y-97189213D01*
X133823304Y-97092070D01*
X133749947Y-97001442D01*
X133680269Y-96918745D01*
X133673833Y-96911302D01*
X133614533Y-96842892D01*
X133635206Y-96786583D01*
X133658904Y-96722136D01*
X133678316Y-96669618D01*
X133693892Y-96627874D01*
X133706085Y-96595748D01*
X133715347Y-96572082D01*
X133722130Y-96555722D01*
X133726886Y-96545510D01*
X133730067Y-96540291D01*
X133732032Y-96538905D01*
X133738122Y-96543401D01*
X133753664Y-96556345D01*
X133777720Y-96576921D01*
X133809355Y-96604313D01*
X133847634Y-96637706D01*
X133891620Y-96676283D01*
X133940378Y-96719228D01*
X133992971Y-96765726D01*
X134038901Y-96806462D01*
X134093864Y-96855191D01*
X134145687Y-96900962D01*
X134193446Y-96942973D01*
X134236218Y-96980418D01*
X134273078Y-97012492D01*
X134303102Y-97038390D01*
X134325366Y-97057309D01*
X134338945Y-97068444D01*
X134342964Y-97071192D01*
X134342725Y-97064009D01*
X134341230Y-97043944D01*
X134338567Y-97011966D01*
X134334825Y-96969047D01*
X134330093Y-96916155D01*
X134324459Y-96854261D01*
X134318011Y-96784336D01*
X134310838Y-96707350D01*
X134303027Y-96624272D01*
X134294669Y-96536073D01*
X134293589Y-96524759D01*
X134950620Y-96524759D01*
X134953163Y-96525501D01*
X134963388Y-96517970D01*
X134979168Y-96503764D01*
X134981210Y-96501806D01*
X135005828Y-96481313D01*
X135036418Y-96460308D01*
X135064302Y-96444429D01*
X135126412Y-96420844D01*
X135189461Y-96410774D01*
X135252073Y-96414010D01*
X135312872Y-96430343D01*
X135370481Y-96459563D01*
X135420452Y-96498553D01*
X135438262Y-96514419D01*
X135450904Y-96524124D01*
X135456292Y-96526124D01*
X135456181Y-96524987D01*
X135453497Y-96516617D01*
X135447047Y-96496151D01*
X135437204Y-96464781D01*
X135424341Y-96423698D01*
X135408830Y-96374096D01*
X135391044Y-96317164D01*
X135371357Y-96254097D01*
X135350140Y-96186085D01*
X135328880Y-96117891D01*
X135306647Y-96046600D01*
X135285658Y-95979371D01*
X135266273Y-95917361D01*
X135248857Y-95861728D01*
X135233771Y-95813628D01*
X135221380Y-95774219D01*
X135212046Y-95744658D01*
X135206131Y-95726103D01*
X135204004Y-95719712D01*
X135201770Y-95725888D01*
X135195765Y-95744210D01*
X135186352Y-95773536D01*
X135173891Y-95812722D01*
X135158745Y-95860624D01*
X135141274Y-95916100D01*
X135121841Y-95978005D01*
X135100807Y-96045196D01*
X135078583Y-96116370D01*
X135056201Y-96188109D01*
X135034991Y-96256032D01*
X135015324Y-96318951D01*
X134997573Y-96375677D01*
X134982112Y-96425021D01*
X134969311Y-96465795D01*
X134959544Y-96496811D01*
X134953183Y-96516879D01*
X134950620Y-96524759D01*
X134293589Y-96524759D01*
X134285850Y-96443724D01*
X134284353Y-96428113D01*
G37*
X134284353Y-96428113D02*
X134275482Y-96335131D01*
X134267088Y-96246110D01*
X134259257Y-96162023D01*
X134252076Y-96083843D01*
X134245631Y-96012543D01*
X134240008Y-95949098D01*
X134235293Y-95894479D01*
X134231572Y-95849661D01*
X134228931Y-95815617D01*
X134227457Y-95793320D01*
X134227235Y-95783742D01*
X134227323Y-95783454D01*
X134234486Y-95785128D01*
X134252938Y-95791832D01*
X134281236Y-95802974D01*
X134317938Y-95817966D01*
X134361599Y-95836218D01*
X134410775Y-95857139D01*
X134464024Y-95880139D01*
X134465125Y-95880618D01*
X134518386Y-95903770D01*
X134567506Y-95925069D01*
X134611053Y-95943899D01*
X134647596Y-95959642D01*
X134675705Y-95971683D01*
X134693949Y-95979405D01*
X134700895Y-95982191D01*
X134700909Y-95982192D01*
X134704585Y-95976261D01*
X134714460Y-95959103D01*
X134730002Y-95931672D01*
X134750677Y-95894922D01*
X134775952Y-95849806D01*
X134805293Y-95797279D01*
X134838167Y-95738293D01*
X134874040Y-95673804D01*
X134912378Y-95604763D01*
X134949911Y-95537066D01*
X134990149Y-95464606D01*
X135028532Y-95395811D01*
X135064516Y-95331636D01*
X135097558Y-95273036D01*
X135127113Y-95220967D01*
X135152638Y-95176382D01*
X135173587Y-95140238D01*
X135189418Y-95113489D01*
X135199585Y-95097091D01*
X135203480Y-95091967D01*
X135207914Y-95097905D01*
X135218516Y-95115069D01*
X135234733Y-95142494D01*
X135256017Y-95179215D01*
X135281817Y-95224269D01*
X135311583Y-95276690D01*
X135344765Y-95335515D01*
X135380813Y-95399778D01*
X135419176Y-95468517D01*
X135452447Y-95528394D01*
X135492369Y-95600367D01*
X135530398Y-95668895D01*
X135565983Y-95732988D01*
X135598574Y-95791656D01*
X135627619Y-95843908D01*
X135652569Y-95888755D01*
X135672873Y-95925205D01*
X135687980Y-95952270D01*
X135697339Y-95968958D01*
X135700334Y-95974197D01*
X135704557Y-95975601D01*
X135714410Y-95973950D01*
X135730913Y-95968851D01*
X135755090Y-95959909D01*
X135787962Y-95946728D01*
X135830551Y-95928916D01*
X135883880Y-95906076D01*
X135940783Y-95881385D01*
X135994229Y-95858260D01*
X136043633Y-95837198D01*
X136087555Y-95818790D01*
X136124557Y-95803625D01*
X136153199Y-95792293D01*
X136172043Y-95785382D01*
X136179651Y-95783482D01*
X136179700Y-95783517D01*
X136179680Y-95790923D01*
X136178395Y-95811208D01*
X136175930Y-95843399D01*
X136172371Y-95886522D01*
X136167805Y-95939605D01*
X136162318Y-96001673D01*
X136155995Y-96071755D01*
X136148924Y-96148876D01*
X136141190Y-96232064D01*
X136132880Y-96320345D01*
X136124080Y-96412747D01*
X136122606Y-96428113D01*
X136113721Y-96521058D01*
X136105282Y-96610014D01*
X136097379Y-96694010D01*
X136090099Y-96772077D01*
X136083532Y-96843244D01*
X136077764Y-96906541D01*
X136072885Y-96960998D01*
X136068983Y-97005643D01*
X136066146Y-97039507D01*
X136064462Y-97061619D01*
X136064020Y-97071010D01*
X136064073Y-97071269D01*
X136069652Y-97067311D01*
X136084688Y-97054887D01*
X136108257Y-97034803D01*
X136139434Y-97007863D01*
X136177296Y-96974873D01*
X136220918Y-96936636D01*
X136269376Y-96893959D01*
X136321745Y-96847646D01*
X136368061Y-96806540D01*
X136423108Y-96757694D01*
X136475100Y-96711723D01*
X136523100Y-96669445D01*
X136566174Y-96631676D01*
X136603385Y-96599233D01*
X136633797Y-96572931D01*
X136656475Y-96553587D01*
X136670482Y-96542018D01*
X136674853Y-96538905D01*
X136676978Y-96540463D01*
X136680242Y-96545908D01*
X136685099Y-96556398D01*
X136692001Y-96573089D01*
X136701401Y-96597138D01*
X136713751Y-96629702D01*
X136729503Y-96671939D01*
X136749111Y-96725004D01*
X136771753Y-96786583D01*
X136792427Y-96842892D01*
X136733126Y-96911302D01*
X136656616Y-97001806D01*
X136576367Y-97100895D01*
X136493504Y-97206960D01*
X136409153Y-97318391D01*
X136324440Y-97433578D01*
X136240490Y-97550911D01*
X136158429Y-97668779D01*
X136079382Y-97785573D01*
X136004476Y-97899683D01*
X135934836Y-98009499D01*
X135871587Y-98113410D01*
X135815856Y-98209807D01*
X135782192Y-98271437D01*
X135744401Y-98342623D01*
X135721445Y-98309258D01*
X135677684Y-98240895D01*
X135632339Y-98161222D01*
X135586500Y-98072587D01*
X135541257Y-97977337D01*
X135497702Y-97877821D01*
X135456925Y-97776387D01*
X135420016Y-97675383D01*
X135401808Y-97621014D01*
X135368975Y-97513980D01*
X135336111Y-97396397D01*
X135304045Y-97271606D01*
X135273605Y-97142948D01*
X135245619Y-97013766D01*
X135223846Y-96903197D01*
X135204129Y-96797764D01*
X135168304Y-96976266D01*
X135128713Y-97162152D01*
X135087007Y-97335290D01*
X135042810Y-97496738D01*
X134995747Y-97647556D01*
X134945443Y-97788803D01*
X134891522Y-97921539D01*
X134833609Y-98046822D01*
X134771330Y-98165714D01*
X134710269Y-98269689D01*
X134693644Y-98296104D01*
X134679432Y-98317856D01*
X134669357Y-98332356D01*
X134665446Y-98336989D01*
X134660281Y-98332639D01*
X134650666Y-98318340D01*
X134638237Y-98296659D01*
X134630963Y-98282849D01*
X134590515Y-98207484D01*
X134541891Y-98123061D01*
X134486079Y-98030995D01*
X134424066Y-97932702D01*
X134356841Y-97829597D01*
X134285391Y-97723097D01*
X134210704Y-97614616D01*
X134133769Y-97505572D01*
X134055574Y-97397379D01*
X133977106Y-97291454D01*
X133899353Y-97189213D01*
X133823304Y-97092070D01*
X133749947Y-97001442D01*
X133680269Y-96918745D01*
X133673833Y-96911302D01*
X133614533Y-96842892D01*
X133635206Y-96786583D01*
X133658904Y-96722136D01*
X133678316Y-96669618D01*
X133693892Y-96627874D01*
X133706085Y-96595748D01*
X133715347Y-96572082D01*
X133722130Y-96555722D01*
X133726886Y-96545510D01*
X133730067Y-96540291D01*
X133732032Y-96538905D01*
X133738122Y-96543401D01*
X133753664Y-96556345D01*
X133777720Y-96576921D01*
X133809355Y-96604313D01*
X133847634Y-96637706D01*
X133891620Y-96676283D01*
X133940378Y-96719228D01*
X133992971Y-96765726D01*
X134038901Y-96806462D01*
X134093864Y-96855191D01*
X134145687Y-96900962D01*
X134193446Y-96942973D01*
X134236218Y-96980418D01*
X134273078Y-97012492D01*
X134303102Y-97038390D01*
X134325366Y-97057309D01*
X134338945Y-97068444D01*
X134342964Y-97071192D01*
X134342725Y-97064009D01*
X134341230Y-97043944D01*
X134338567Y-97011966D01*
X134334825Y-96969047D01*
X134330093Y-96916155D01*
X134324459Y-96854261D01*
X134318011Y-96784336D01*
X134310838Y-96707350D01*
X134303027Y-96624272D01*
X134294669Y-96536073D01*
X134293589Y-96524759D01*
X134950620Y-96524759D01*
X134953163Y-96525501D01*
X134963388Y-96517970D01*
X134979168Y-96503764D01*
X134981210Y-96501806D01*
X135005828Y-96481313D01*
X135036418Y-96460308D01*
X135064302Y-96444429D01*
X135126412Y-96420844D01*
X135189461Y-96410774D01*
X135252073Y-96414010D01*
X135312872Y-96430343D01*
X135370481Y-96459563D01*
X135420452Y-96498553D01*
X135438262Y-96514419D01*
X135450904Y-96524124D01*
X135456292Y-96526124D01*
X135456181Y-96524987D01*
X135453497Y-96516617D01*
X135447047Y-96496151D01*
X135437204Y-96464781D01*
X135424341Y-96423698D01*
X135408830Y-96374096D01*
X135391044Y-96317164D01*
X135371357Y-96254097D01*
X135350140Y-96186085D01*
X135328880Y-96117891D01*
X135306647Y-96046600D01*
X135285658Y-95979371D01*
X135266273Y-95917361D01*
X135248857Y-95861728D01*
X135233771Y-95813628D01*
X135221380Y-95774219D01*
X135212046Y-95744658D01*
X135206131Y-95726103D01*
X135204004Y-95719712D01*
X135201770Y-95725888D01*
X135195765Y-95744210D01*
X135186352Y-95773536D01*
X135173891Y-95812722D01*
X135158745Y-95860624D01*
X135141274Y-95916100D01*
X135121841Y-95978005D01*
X135100807Y-96045196D01*
X135078583Y-96116370D01*
X135056201Y-96188109D01*
X135034991Y-96256032D01*
X135015324Y-96318951D01*
X134997573Y-96375677D01*
X134982112Y-96425021D01*
X134969311Y-96465795D01*
X134959544Y-96496811D01*
X134953183Y-96516879D01*
X134950620Y-96524759D01*
X134293589Y-96524759D01*
X134285850Y-96443724D01*
X134284353Y-96428113D01*
D12*
X134991233Y-108990000D02*
X135283767Y-108990000D01*
X134991233Y-110010000D02*
X135283767Y-110010000D01*
X134510000Y-106796267D02*
X134510000Y-106453733D01*
X133490000Y-106796267D02*
X133490000Y-106453733D01*
X127000000Y-111994800D02*
X129000000Y-111994800D01*
X129000000Y-119005200D02*
X127000000Y-119005200D01*
X131505200Y-114500000D02*
X131505200Y-116500000D01*
X124494800Y-116500000D02*
X124494800Y-114500000D01*
X136147318Y-104426069D02*
X136354171Y-104632922D01*
X135426069Y-105147318D02*
X135632922Y-105354171D01*
X143000000Y-105005200D02*
X141000000Y-105005200D01*
X145505200Y-100500000D02*
X145505200Y-102500000D01*
X138494800Y-102500000D02*
X138494800Y-100500000D01*
X141000000Y-97994800D02*
X143000000Y-97994800D01*
%LPC*%
D13*
X134275000Y-109500000D03*
X136000000Y-109500000D03*
D14*
X134000000Y-107500000D03*
X134000000Y-105750000D03*
D15*
X125460000Y-112960000D03*
X125460000Y-118040000D03*
X130540000Y-118040000D03*
D16*
X128000000Y-115500000D03*
D15*
X130540000Y-112960000D03*
D17*
X135280240Y-104280240D03*
X136500000Y-105500000D03*
D15*
X139460000Y-98960000D03*
X144540000Y-104040000D03*
X144540000Y-98960000D03*
D16*
X142000000Y-101500000D03*
D15*
X139460000Y-104040000D03*
D18*
X135000000Y-183000000D03*
D19*
X135000000Y-183000000D03*
X60500000Y-108500000D03*
D18*
X60500000Y-108500000D03*
X135000000Y-34000000D03*
D19*
X135000000Y-34000000D03*
X209500000Y-108500000D03*
D18*
X209500000Y-108500000D03*
M02*
