%TF.GenerationSoftware,KiCad,Pcbnew,6.0.9+dfsg-1*%
%TF.CreationDate,2022-11-12T19:52:31+00:00*%
%TF.ProjectId,antenna,616e7465-6e6e-4612-9e6b-696361645f70,rev?*%
%TF.SameCoordinates,Original*%
%TF.FileFunction,Copper,L1,Top*%
%TF.FilePolarity,Positive*%
%FSLAX46Y46*%
G04 Gerber Fmt 4.6, Leading zero omitted, Abs format (unit mm)*
G04 Created by KiCad (PCBNEW 6.0.9+dfsg-1) date 2022-11-12 19:52:31*
%MOMM*%
%LPD*%
G01*
G04 APERTURE LIST*
G04 Aperture macros list*
%AMRoundRect*
0 Rectangle with rounded corners*
0 $1 Rounding radius*
0 $2 $3 $4 $5 $6 $7 $8 $9 X,Y pos of 4 corners*
0 Add a 4 corners polygon primitive as box body*
4,1,4,$2,$3,$4,$5,$6,$7,$8,$9,$2,$3,0*
0 Add four circle primitives for the rounded corners*
1,1,$1+$1,$2,$3*
1,1,$1+$1,$4,$5*
1,1,$1+$1,$6,$7*
1,1,$1+$1,$8,$9*
0 Add four rect primitives between the rounded corners*
20,1,$1+$1,$2,$3,$4,$5,0*
20,1,$1+$1,$4,$5,$6,$7,0*
20,1,$1+$1,$6,$7,$8,$9,0*
20,1,$1+$1,$8,$9,$2,$3,0*%
G04 Aperture macros list end*
%TA.AperFunction,NonConductor*%
%ADD10C,0.200000*%
%TD*%
%TA.AperFunction,SMDPad,CuDef*%
%ADD11RoundRect,0.237500X-0.300000X-0.237500X0.300000X-0.237500X0.300000X0.237500X-0.300000X0.237500X0*%
%TD*%
%TA.AperFunction,SMDPad,CuDef*%
%ADD12RoundRect,0.237500X0.237500X-0.287500X0.237500X0.287500X-0.237500X0.287500X-0.237500X-0.287500X0*%
%TD*%
%TA.AperFunction,WasherPad*%
%ADD13C,2.740000*%
%TD*%
%TA.AperFunction,ComponentPad*%
%ADD14C,2.240000*%
%TD*%
%TA.AperFunction,ComponentPad*%
%ADD15C,2.740000*%
%TD*%
%TA.AperFunction,SMDPad,CuDef*%
%ADD16RoundRect,0.237500X-0.380070X0.044194X0.044194X-0.380070X0.380070X-0.044194X-0.044194X0.380070X0*%
%TD*%
%TA.AperFunction,ConnectorPad*%
%ADD17C,7.400000*%
%TD*%
%TA.AperFunction,ComponentPad*%
%ADD18C,4.100000*%
%TD*%
%TA.AperFunction,Conductor*%
%ADD19C,1.090000*%
%TD*%
G04 APERTURE END LIST*
D10*
X127500000Y-134000000D02*
X127500000Y-134000000D01*
X127500000Y-134000000D02*
X127500000Y-134000000D01*
X127500000Y-134000000D02*
X127500000Y-134000000D01*
X127500000Y-134000000D02*
X127500000Y-134000000D01*
D11*
X134275000Y-109500000D03*
X136000000Y-109500000D03*
D12*
X134000000Y-107500000D03*
X134000000Y-105750000D03*
D13*
X125460000Y-112960000D03*
X125460000Y-118040000D03*
X130540000Y-118040000D03*
D14*
X128000000Y-115500000D03*
D15*
X130540000Y-112960000D03*
D16*
X135280240Y-104280240D03*
X136500000Y-105500000D03*
D13*
X139460000Y-98960000D03*
X144540000Y-104040000D03*
X144540000Y-98960000D03*
D14*
X142000000Y-101500000D03*
D15*
X139460000Y-104040000D03*
D17*
X135000000Y-183000000D03*
D18*
X135000000Y-183000000D03*
X60500000Y-108500000D03*
D17*
X60500000Y-108500000D03*
X135000000Y-34000000D03*
D18*
X135000000Y-34000000D03*
X209500000Y-108500000D03*
D17*
X209500000Y-108500000D03*
D19*
X136000000Y-106080000D02*
X136000000Y-107500000D01*
X139460000Y-104040000D02*
X137960000Y-104040000D01*
X137960000Y-104040000D02*
X136500000Y-105500000D01*
X137540000Y-104540000D02*
X136000000Y-106080000D01*
X138250000Y-101500000D02*
X134000000Y-105750000D01*
X142000000Y-101500000D02*
X138250000Y-101500000D01*
%TA.AperFunction,Conductor*%
G36*
X132962249Y-107020002D02*
G01*
X133008742Y-107073658D01*
X133019472Y-107138844D01*
X133017328Y-107159772D01*
X133017000Y-107166185D01*
X133017000Y-107227885D01*
X133021475Y-107243124D01*
X133022865Y-107244329D01*
X133030548Y-107246000D01*
X134128000Y-107246000D01*
X134196121Y-107266002D01*
X134242614Y-107319658D01*
X134254000Y-107372000D01*
X134254000Y-107628000D01*
X134233998Y-107696121D01*
X134180342Y-107742614D01*
X134128000Y-107754000D01*
X133035115Y-107754000D01*
X133019876Y-107758475D01*
X133018671Y-107759865D01*
X133017000Y-107767548D01*
X133017000Y-107833766D01*
X133017337Y-107840282D01*
X133027075Y-107934132D01*
X133029968Y-107947528D01*
X133080488Y-108098953D01*
X133086653Y-108112115D01*
X133170426Y-108247492D01*
X133179460Y-108258890D01*
X133292129Y-108371363D01*
X133303540Y-108380375D01*
X133439063Y-108463912D01*
X133452239Y-108470055D01*
X133454236Y-108470718D01*
X133455423Y-108471540D01*
X133458875Y-108473150D01*
X133458599Y-108473741D01*
X133512596Y-108511149D01*
X133539832Y-108576714D01*
X133527298Y-108646595D01*
X133503741Y-108679329D01*
X133391137Y-108792129D01*
X133382125Y-108803540D01*
X133298588Y-108939063D01*
X133292444Y-108952241D01*
X133242185Y-109103766D01*
X133239319Y-109117132D01*
X133229828Y-109209770D01*
X133229500Y-109216185D01*
X133229500Y-109227885D01*
X133233975Y-109243124D01*
X133235365Y-109244329D01*
X133243048Y-109246000D01*
X134403000Y-109246000D01*
X134471121Y-109266002D01*
X134500000Y-109299330D01*
X134500000Y-109703918D01*
X134455342Y-109742614D01*
X134403000Y-109754000D01*
X133247615Y-109754000D01*
X133232376Y-109758475D01*
X133231171Y-109759865D01*
X133229500Y-109767548D01*
X133229500Y-109783766D01*
X133229837Y-109790280D01*
X133237175Y-109860995D01*
X133224311Y-109930817D01*
X133175740Y-109982599D01*
X133111848Y-110000000D01*
X65626000Y-110000000D01*
X65557879Y-109979998D01*
X65511386Y-109926342D01*
X65500000Y-109874000D01*
X65500000Y-107126000D01*
X65520002Y-107057879D01*
X65573658Y-107011386D01*
X65626000Y-107000000D01*
X132894128Y-107000000D01*
X132962249Y-107020002D01*
G37*
%TD.AperFunction*%
%TA.AperFunction,Conductor*%
G36*
X204442121Y-107020002D02*
G01*
X204488614Y-107073658D01*
X204500000Y-107126000D01*
X204500000Y-109874000D01*
X204479998Y-109942121D01*
X204426342Y-109988614D01*
X204374000Y-110000000D01*
X137163249Y-110000000D01*
X137095128Y-109979998D01*
X137048635Y-109926342D01*
X137037905Y-109861157D01*
X137045172Y-109790230D01*
X137045500Y-109783815D01*
X137045500Y-109772115D01*
X137041025Y-109756876D01*
X137039635Y-109755671D01*
X137031952Y-109754000D01*
X135872000Y-109754000D01*
X135803879Y-109733998D01*
X135757386Y-109680342D01*
X135746000Y-109628000D01*
X135746000Y-109227885D01*
X136254000Y-109227885D01*
X136258475Y-109243124D01*
X136259865Y-109244329D01*
X136267548Y-109246000D01*
X137027385Y-109246000D01*
X137042624Y-109241525D01*
X137043829Y-109240135D01*
X137045500Y-109232452D01*
X137045500Y-109216234D01*
X137045163Y-109209718D01*
X137035425Y-109115868D01*
X137032532Y-109102472D01*
X136982012Y-108951047D01*
X136975847Y-108937885D01*
X136892074Y-108802508D01*
X136883040Y-108791110D01*
X136770371Y-108678637D01*
X136758960Y-108669625D01*
X136623437Y-108586088D01*
X136610259Y-108579944D01*
X136458734Y-108529685D01*
X136445368Y-108526819D01*
X136352730Y-108517328D01*
X136346315Y-108517000D01*
X136272115Y-108517000D01*
X136256876Y-108521475D01*
X136255671Y-108522865D01*
X136254000Y-108530548D01*
X136254000Y-109227885D01*
X135746000Y-109227885D01*
X135746000Y-108535115D01*
X135741525Y-108519876D01*
X135740135Y-108518671D01*
X135732452Y-108517000D01*
X135653734Y-108517000D01*
X135647231Y-108517337D01*
X135639009Y-108518190D01*
X135569187Y-108505328D01*
X135517403Y-108456759D01*
X135500000Y-108392863D01*
X135500000Y-107126000D01*
X135520002Y-107057879D01*
X135573658Y-107011386D01*
X135626000Y-107000000D01*
X204374000Y-107000000D01*
X204442121Y-107020002D01*
G37*
%TD.AperFunction*%
M02*
