%TF.GenerationSoftware,KiCad,Pcbnew,6.0.9+dfsg-1*%
%TF.CreationDate,2022-11-12T19:52:31+00:00*%
%TF.ProjectId,antenna,616e7465-6e6e-4612-9e6b-696361645f70,rev?*%
%TF.SameCoordinates,Original*%
%TF.FileFunction,Copper,L2,Bot*%
%TF.FilePolarity,Positive*%
%FSLAX46Y46*%
G04 Gerber Fmt 4.6, Leading zero omitted, Abs format (unit mm)*
G04 Created by KiCad (PCBNEW 6.0.9+dfsg-1) date 2022-11-12 19:52:31*
%MOMM*%
%LPD*%
G01*
G04 APERTURE LIST*
G04 Aperture macros list*
%AMRoundRect*
0 Rectangle with rounded corners*
0 $1 Rounding radius*
0 $2 $3 $4 $5 $6 $7 $8 $9 X,Y pos of 4 corners*
0 Add a 4 corners polygon primitive as box body*
4,1,4,$2,$3,$4,$5,$6,$7,$8,$9,$2,$3,0*
0 Add four circle primitives for the rounded corners*
1,1,$1+$1,$2,$3*
1,1,$1+$1,$4,$5*
1,1,$1+$1,$6,$7*
1,1,$1+$1,$8,$9*
0 Add four rect primitives between the rounded corners*
20,1,$1+$1,$2,$3,$4,$5,0*
20,1,$1+$1,$4,$5,$6,$7,0*
20,1,$1+$1,$6,$7,$8,$9,0*
20,1,$1+$1,$8,$9,$2,$3,0*%
G04 Aperture macros list end*
%TA.AperFunction,WasherPad*%
%ADD10C,2.740000*%
%TD*%
%TA.AperFunction,ComponentPad*%
%ADD11C,2.240000*%
%TD*%
%TA.AperFunction,ComponentPad*%
%ADD12C,2.740000*%
%TD*%
%TA.AperFunction,ComponentPad*%
%ADD13C,4.100000*%
%TD*%
%TA.AperFunction,SMDPad,CuDef*%
%ADD14RoundRect,0.237500X0.287500X0.237500X-0.287500X0.237500X-0.287500X-0.237500X0.287500X-0.237500X0*%
%TD*%
%TA.AperFunction,SMDPad,CuDef*%
%ADD15RoundRect,0.237500X-0.237500X0.300000X-0.237500X-0.300000X0.237500X-0.300000X0.237500X0.300000X0*%
%TD*%
%TA.AperFunction,SMDPad,CuDef*%
%ADD16RoundRect,0.237500X-0.380070X0.044194X0.044194X-0.380070X0.380070X-0.044194X-0.044194X0.380070X0*%
%TD*%
%TA.AperFunction,Conductor*%
%ADD17C,1.090000*%
%TD*%
G04 APERTURE END LIST*
D10*
X125460000Y-112960000D03*
X125460000Y-118040000D03*
X130540000Y-118040000D03*
D11*
X128000000Y-115500000D03*
D12*
X130540000Y-112960000D03*
D10*
X139460000Y-98960000D03*
X144540000Y-104040000D03*
X144540000Y-98960000D03*
D11*
X142000000Y-101500000D03*
D12*
X139460000Y-104040000D03*
D13*
X135000000Y-183000000D03*
X60500000Y-108500000D03*
X135000000Y-34000000D03*
X209500000Y-108500000D03*
D14*
X133875000Y-107500000D03*
X132125000Y-107500000D03*
D15*
X136000000Y-107525000D03*
X136000000Y-109250000D03*
D16*
X130640120Y-108890120D03*
X131859880Y-110109880D03*
D17*
X128000000Y-111625000D02*
X132125000Y-107500000D01*
X128000000Y-115500000D02*
X128000000Y-111625000D01*
X130540000Y-112960000D02*
X130540000Y-111460000D01*
X132250000Y-109750000D02*
X134250000Y-109750000D01*
X130540000Y-111460000D02*
X132250000Y-109750000D01*
%TA.AperFunction,Conductor*%
G36*
X136442121Y-39020002D02*
G01*
X136488614Y-39073658D01*
X136500000Y-39126000D01*
X136500000Y-106361751D01*
X136479998Y-106429872D01*
X136426342Y-106476365D01*
X136361157Y-106487095D01*
X136290230Y-106479828D01*
X136283815Y-106479500D01*
X136272115Y-106479500D01*
X136256876Y-106483975D01*
X136255671Y-106485365D01*
X136254000Y-106493048D01*
X136254000Y-107653000D01*
X136233998Y-107721121D01*
X136180342Y-107767614D01*
X136128000Y-107779000D01*
X135872000Y-107779000D01*
X135803879Y-107758998D01*
X135757386Y-107705342D01*
X135746000Y-107653000D01*
X135746000Y-106497615D01*
X135741525Y-106482376D01*
X135740135Y-106481171D01*
X135732452Y-106479500D01*
X135716234Y-106479500D01*
X135709718Y-106479837D01*
X135615868Y-106489575D01*
X135602472Y-106492468D01*
X135451047Y-106542988D01*
X135437885Y-106549153D01*
X135302508Y-106632926D01*
X135291110Y-106641960D01*
X135178637Y-106754629D01*
X135169625Y-106766040D01*
X135086088Y-106901563D01*
X135079943Y-106914742D01*
X135074850Y-106930097D01*
X135034420Y-106988457D01*
X134968856Y-107015695D01*
X134898975Y-107003162D01*
X134846962Y-106954838D01*
X134841157Y-106943884D01*
X134838346Y-106937884D01*
X134754574Y-106802508D01*
X134745540Y-106791110D01*
X134632871Y-106678637D01*
X134621460Y-106669625D01*
X134485937Y-106586088D01*
X134472759Y-106579944D01*
X134321234Y-106529685D01*
X134307868Y-106526819D01*
X134215230Y-106517328D01*
X134208815Y-106517000D01*
X134147115Y-106517000D01*
X134131876Y-106521475D01*
X134130671Y-106522865D01*
X134129000Y-106530548D01*
X134129000Y-107628000D01*
X134108998Y-107696121D01*
X134055342Y-107742614D01*
X134003000Y-107754000D01*
X133747000Y-107754000D01*
X133678879Y-107733998D01*
X133632386Y-107680342D01*
X133621000Y-107628000D01*
X133621000Y-106535115D01*
X133616525Y-106519876D01*
X133615135Y-106518671D01*
X133599218Y-106515209D01*
X133536906Y-106481185D01*
X133502880Y-106418873D01*
X133500000Y-106392088D01*
X133500000Y-39126000D01*
X133520002Y-39057879D01*
X133573658Y-39011386D01*
X133626000Y-39000000D01*
X136374000Y-39000000D01*
X136442121Y-39020002D01*
G37*
%TD.AperFunction*%
%TA.AperFunction,Conductor*%
G36*
X136196121Y-109016002D02*
G01*
X136242614Y-109069658D01*
X136254000Y-109122000D01*
X136254000Y-110277385D01*
X136258475Y-110292624D01*
X136259865Y-110293829D01*
X136267548Y-110295500D01*
X136283766Y-110295500D01*
X136290280Y-110295163D01*
X136360995Y-110287825D01*
X136430817Y-110300689D01*
X136482599Y-110349260D01*
X136500000Y-110413152D01*
X136500000Y-177874000D01*
X136479998Y-177942121D01*
X136426342Y-177988614D01*
X136374000Y-178000000D01*
X133626000Y-178000000D01*
X133557879Y-177979998D01*
X133511386Y-177926342D01*
X133500000Y-177874000D01*
X133500000Y-109596266D01*
X135017000Y-109596266D01*
X135017337Y-109602782D01*
X135027075Y-109696632D01*
X135029968Y-109710028D01*
X135080488Y-109861453D01*
X135086653Y-109874615D01*
X135170426Y-110009992D01*
X135179460Y-110021390D01*
X135292129Y-110133863D01*
X135303540Y-110142875D01*
X135439063Y-110226412D01*
X135452241Y-110232556D01*
X135603766Y-110282815D01*
X135617132Y-110285681D01*
X135709770Y-110295172D01*
X135716185Y-110295500D01*
X135727885Y-110295500D01*
X135743124Y-110291025D01*
X135744329Y-110289635D01*
X135746000Y-110281952D01*
X135746000Y-109522115D01*
X135741525Y-109506876D01*
X135740135Y-109505671D01*
X135732452Y-109504000D01*
X135035115Y-109504000D01*
X135019876Y-109508475D01*
X135018671Y-109509865D01*
X135017000Y-109517548D01*
X135017000Y-109596266D01*
X133500000Y-109596266D01*
X133500000Y-109126000D01*
X133520002Y-109057879D01*
X133573658Y-109011386D01*
X133626000Y-109000000D01*
X136141623Y-109000000D01*
X136196121Y-109016002D01*
G37*
%TD.AperFunction*%
M02*
