%TF.GenerationSoftware,KiCad,Pcbnew,6.0.9+dfsg-1*%
%TF.CreationDate,2022-11-12T19:52:27+00:00*%
%TF.ProjectId,antenna,616e7465-6e6e-4612-9e6b-696361645f70,rev?*%
%TF.SameCoordinates,Original*%
%TF.FileFunction,Profile,NP*%
%FSLAX46Y46*%
G04 Gerber Fmt 4.6, Leading zero omitted, Abs format (unit mm)*
G04 Created by KiCad (PCBNEW 6.0.9+dfsg-1) date 2022-11-12 19:52:27*
%MOMM*%
%LPD*%
G01*
G04 APERTURE LIST*
%TA.AperFunction,Profile*%
%ADD10C,0.100000*%
%TD*%
G04 APERTURE END LIST*
D10*
X137500000Y-112000000D02*
X137500000Y-179000000D01*
X137500000Y-95500000D02*
G75*
G03*
X138500000Y-96500000I1000000J0D01*
G01*
X147000000Y-97500000D02*
X147000000Y-105000000D01*
X147000000Y-105000000D02*
G75*
G03*
X148000000Y-106000000I1000000J0D01*
G01*
X132500000Y-179000000D02*
G75*
G03*
X137500000Y-179000000I2500000J-4000000D01*
G01*
X137500000Y-38000000D02*
G75*
G03*
X132500000Y-38000000I-2500000J4000000D01*
G01*
X132500000Y-105000000D02*
X132500000Y-38000000D01*
X205500000Y-111000000D02*
G75*
G03*
X205500000Y-106000000I4000000J2500000D01*
G01*
X64500000Y-105999999D02*
G75*
G03*
X64500000Y-111000000I-4000000J-2500001D01*
G01*
X132500000Y-121500000D02*
G75*
G03*
X131500000Y-120500000I-1000000J0D01*
G01*
X122000000Y-111000000D02*
X64500000Y-111000000D01*
X138500000Y-111000000D02*
G75*
G03*
X137500000Y-112000000I0J-1000000D01*
G01*
X131500000Y-106000000D02*
G75*
G03*
X132500000Y-105000000I0J1000000D01*
G01*
X137500000Y-38000000D02*
X137500000Y-95500000D01*
X205500000Y-111000000D02*
X138500000Y-111000000D01*
X138500000Y-96500000D02*
X146000000Y-96500000D01*
X123000000Y-119500000D02*
X123000000Y-112000000D01*
X123000000Y-112000000D02*
G75*
G03*
X122000000Y-111000000I-1000000J0D01*
G01*
X147000000Y-97500000D02*
G75*
G03*
X146000000Y-96500000I-1000000J0D01*
G01*
X123000000Y-119500000D02*
G75*
G03*
X124000000Y-120500000I1000000J0D01*
G01*
X131500000Y-120500000D02*
X124000000Y-120500000D01*
X148000000Y-106000000D02*
X205500000Y-106000000D01*
X132500000Y-179000000D02*
X132500000Y-121500000D01*
X64499999Y-106000000D02*
X131500000Y-106000000D01*
M02*
